<?xml version="1.0" encoding="UTF-8"?>
<svg id="Calque_3" data-name="Calque 3" xmlns="http://www.w3.org/2000/svg" viewBox="0 0 209 269">
  <defs>
    <style>
      .cls-1 {
        fill: #000;
        stroke-width: 0px;
      }
    </style>
  </defs>
  <path class="cls-1" d="M161.83,260.11c.37,1.79,1.79,2.99,3.18,2.71l29.76-6.18c1.38-.29,2.21-1.96,1.83-3.75l-35.51-170.83c-.37-1.78-1.8-3-3.18-2.71l-29.76,6.18c-1.38.29-2.21,1.97-1.84,3.75l35.51,170.84ZM191.78,238.54l-31.24,6.49-2.89-13.91,31.24-6.49,2.89,13.91ZM188.01,220.43l-31.23,6.49-21.82-104.99,31.23-6.49,21.81,104.98ZM161.93,94.94l2.89,13.91-31.23,6.49-2.9-13.91,31.24-6.49Z"/>
  <path class="cls-1" d="M77.96,262.22l45.91-1.57c2.13-.07,3.82-1.61,3.75-3.43l-5.98-174.38c-.06-1.82-1.84-3.24-3.98-3.16l-45.91,1.57c-2.14.08-3.82,1.61-3.76,3.43l5.98,174.38c.06,1.82,1.84,3.24,3.98,3.17ZM71.17,97.36l48.19-1.66.49,14.2-48.19,1.65-.48-14.2ZM71.95,120.17l48.19-1.65.45,13.13-48.19,1.65-.45-13.14ZM121.01,143.88l1.44,42.1-48.19,1.65-1.44-42.1,48.19-1.65Z"/>
  <path class="cls-1" d="M25.37,262.13l38.09-3.18c1.77-.15,3.08-1.71,2.94-3.48l-14.2-169.89c-.15-1.77-1.7-3.09-3.48-2.94l-38.08,3.18c-1.77.15-3.09,1.7-2.94,3.48l14.19,169.89c.15,1.77,1.71,3.09,3.48,2.94ZM11,101.56l39.97-3.34,2.08,24.89-39.98,3.34-2.08-24.89ZM15.45,154.74l39.98-3.34,3.66,43.75-39.98,3.34-3.65-43.75ZM19.86,207.54l39.98-3.34,1.76,21.12-39.98,3.34-1.77-21.12Z"/>
  <path class="cls-1" d="M161.83,260.11c.37,1.79,1.79,2.99,3.18,2.71l29.76-6.18c1.38-.29,2.21-1.96,1.83-3.75l-35.51-170.83c-.37-1.78-1.8-3-3.18-2.71l-29.76,6.18c-1.38.29-2.21,1.97-1.84,3.75l35.51,170.84ZM191.78,238.54l-31.24,6.49-2.89-13.91,31.24-6.49,2.89,13.91ZM188.01,220.43l-31.23,6.49-21.82-104.99,31.23-6.49,21.81,104.98ZM161.93,94.94l2.89,13.91-31.23,6.49-2.9-13.91,31.24-6.49Z"/>
  <path class="cls-1" d="M158.14,71.31l1.23-5.34,34.28,21.43,7.66-13.52-33.51-20.89,28.67-24.8-10.64-11.68-28.43,24.71-14.53-35.07-14.14,5.86,12.3,35.06-35.35,2.64.74,15.78,37.81-2.73-2.74,11.83,14.81-3.08c.6-.13,1.22-.19,1.85-.2Z"/>
</svg>